<?xml version="1.0" encoding="UTF-8" standalone="no"?>
<svg
   xmlns:dc="http://purl.org/dc/elements/1.1/"
   xmlns:cc="http://creativecommons.org/ns#"
   xmlns:rdf="http://www.w3.org/1999/02/22-rdf-syntax-ns#"
   xmlns:svg="http://www.w3.org/2000/svg"
   xmlns="http://www.w3.org/2000/svg"
   xmlns:sodipodi="http://sodipodi.sourceforge.net/DTD/sodipodi-0.dtd"
   xmlns:inkscape="http://www.inkscape.org/namespaces/inkscape"
   viewBox="0 0 512 512"
   version="1.1"
   id="svg5134"
   sodipodi:docname="exchange-icon.svg"
   inkscape:version="0.92.5 (2060ec1f9f, 2020-04-08)">
  <metadata
     id="metadata5140">
    <rdf:RDF>
      <cc:Work
         rdf:about="">
        <dc:format>image/svg+xml</dc:format>
        <dc:type
           rdf:resource="http://purl.org/dc/dcmitype/StillImage" />
      </cc:Work>
    </rdf:RDF>
  </metadata>
  <defs
     id="defs5138" />
  <sodipodi:namedview
     pagecolor="#ffffff"
     bordercolor="#666666"
     borderopacity="1"
     objecttolerance="10"
     gridtolerance="10"
     guidetolerance="10"
     inkscape:pageopacity="0"
     inkscape:pageshadow="2"
     inkscape:window-width="2560"
     inkscape:window-height="1361"
     id="namedview5136"
     showgrid="false"
     inkscape:zoom="1.3037281"
     inkscape:cx="202.91452"
     inkscape:cy="234.01547"
     inkscape:window-x="-9"
     inkscape:window-y="-5"
     inkscape:window-maximized="1"
     inkscape:current-layer="svg5134" />
  <!--! Font Awesome Pro 6.1.1 by @fontawesome - https://fontawesome.com License - https://fontawesome.com/license (Commercial License) Copyright 2022 Fonticons, Inc. -->
  <path
     d="M32 160h319.9l.0791 72c0 9.547 5.652 18.19 14.41 22c8.754 3.812 18.93 2.078 25.93-4.406l112-104c10.24-9.5 10.24-25.69 0-35.19l-112-104c-6.992-6.484-17.17-8.217-25.93-4.408c-8.758 3.816-14.41 12.46-14.41 22L351.9 96H32C14.31 96 0 110.3 0 127.1S14.31 160 32 160zM480 352H160.1L160 279.1c0-9.547-5.652-18.19-14.41-22C136.9 254.2 126.7 255.9 119.7 262.4l-112 104c-10.24 9.5-10.24 25.69 0 35.19l112 104c6.992 6.484 17.17 8.219 25.93 4.406C154.4 506.2 160 497.5 160 488L160.1 416H480c17.69 0 32-14.31 32-32S497.7 352 480 352z"
     id="path5132"
     style="fill:#ffc300;fill-opacity:1" />
</svg>
